<svg xmlns="http://www.w3.org/2000/svg" viewBox="0 0 24 24" role="img" aria-labelledby="title">
<title id="title">Settings</title>
<style>
.icon{fill:none;stroke:currentColor;stroke-width:1.75;stroke-linecap:round;stroke-linejoin:round}
.accent-stroke{fill:none;stroke:#F5E400;stroke-width:1.75;stroke-linecap:round;stroke-linejoin:round}
.accent-fill{fill:#F5E400;stroke:none}
</style>
<path class="icon" d="M9.8 3.8h4.4l.7 2a7 7 0 0 1 1.3.8l2.1-.4 2.2 3.8-1.4 1.6a7 7 0 0 1 0 1.5l1.4 1.6-2.2 3.8-2.1-.4a7 7 0 0 1-1.3.8l-.7 2H9.8l-.7-2a7 7 0 0 1-1.3-.8l-2.1.4-2.2-3.8 1.4-1.6a7 7 0 0 1 0-1.5L3.5 10l2.2-3.8 2.1.4a7 7 0 0 1 1.3-.8z"/><circle class="accent-fill" cx="12" cy="12" r="2"/>
</svg>
